<?xml version="1.0" encoding="UTF-8"?>
<!DOCTYPE svg PUBLIC "-//W3C//DTD SVG 1.1//EN" "http://www.w3.org/Graphics/SVG/1.1/DTD/svg11.dtd">
<svg xmlns="http://www.w3.org/2000/svg" version="1.1" width="800px" height="600px" style="shape-rendering:geometricPrecision; text-rendering:geometricPrecision; image-rendering:optimizeQuality; fill-rule:evenodd; clip-rule:evenodd" xmlns:xlink="http://www.w3.org/1999/xlink">
<g><path style="opacity:0.333" fill="#000000" d="M 278.5,211.5 C 360.557,211.008 442.557,211.508 524.5,213C 525,213.5 525.5,214 526,214.5C 526.667,271.833 526.667,329.167 526,386.5C 525.5,387 525,387.5 524.5,388C 441.833,388.667 359.167,388.667 276.5,388C 275.667,387.167 274.833,386.333 274,385.5C 273.333,328.833 273.333,272.167 274,215.5C 274.907,213.391 276.407,212.058 278.5,211.5 Z M 284.5,222.5 C 361.833,222.5 439.167,222.5 516.5,222.5C 516.5,274.167 516.5,325.833 516.5,377.5C 439.167,377.5 361.833,377.5 284.5,377.5C 284.5,325.833 284.5,274.167 284.5,222.5 Z"/></g>
<g><path style="opacity:0.345" fill="#000000" d="M 311.5,237.5 C 329.764,238.34 336.597,247.673 332,265.5C 325.268,275.298 316.435,277.798 305.5,273C 296.273,266.006 294.106,257.173 299,246.5C 302.261,242.131 306.427,239.131 311.5,237.5 Z"/></g>
<g><path style="opacity:0.357" fill="#000000" d="M 422.5,264.5 C 428.023,264.178 432.523,266.178 436,270.5C 460.5,304.167 485,337.833 509.5,371.5C 436.5,372.833 363.5,372.833 290.5,371.5C 306.641,349.525 322.974,327.692 339.5,306C 344.069,303.781 348.402,304.114 352.5,307C 358.667,315.167 364.833,323.333 371,331.5C 386.244,311.345 401.244,291.011 416,270.5C 418.063,268.266 420.229,266.266 422.5,264.5 Z"/></g>
</svg>
